<?xml version="1.0" encoding="UTF-8"?>
<svg version="1.1" xmlns="http://www.w3.org/2000/svg" width="64" height="65">
<path d="M0 0 C7.06314251 4.79151671 12.34239919 11.486691 14 20 C15.37211723 30.07258785 12.49009301 37.75963182 7 46 C1.90889125 51.58447392 -5.91547031 55.3353556 -13.390625 56.3125 C-17.0945015 56.41328576 -19.92963458 56.02136093 -23.5 54.9375 C-29.13653885 53.42771281 -34.22277981 54.6560219 -39.875 55.75 C-43 56 -43 56 -44.75 54.8046875 C-46 53 -46 53 -45.8203125 50.8359375 C-45.59085938 50.02382813 -45.36140625 49.21171875 -45.125 48.375 C-43.66048085 42.23839522 -44.00992479 36.97022563 -46 31 C-47.05602349 21.56503602 -44.30629568 13.11689991 -38.546875 5.59765625 C-28.1339912 -5.15706464 -13.01371663 -7.41759902 0 0 Z " fill="#3FC251" transform="translate(48,6)"/>
<path d="M0 0 C7.06314251 4.79151671 12.34239919 11.486691 14 20 C15.37211723 30.07258785 12.49009301 37.75963182 7 46 C1.90889125 51.58447392 -5.91547031 55.3353556 -13.390625 56.3125 C-17.0945015 56.41328576 -19.92963458 56.02136093 -23.5 54.9375 C-29.13653885 53.42771281 -34.22277981 54.6560219 -39.875 55.75 C-43 56 -43 56 -44.75 54.8046875 C-46 53 -46 53 -45.8203125 50.8359375 C-45.59085938 50.02382813 -45.36140625 49.21171875 -45.125 48.375 C-43.66048085 42.23839522 -44.00992479 36.97022563 -46 31 C-47.05602349 21.56503602 -44.30629568 13.11689991 -38.546875 5.59765625 C-28.1339912 -5.15706464 -13.01371663 -7.41759902 0 0 Z M-34.390625 11.59375 C-37.7254071 16.19668867 -38.15252081 20.38980022 -38.1875 25.9375 C-38.20167969 26.95714844 -38.21585938 27.97679688 -38.23046875 29.02734375 C-37.99236139 32.09852513 -37.16200631 34.17472974 -36 37 C-35.8046875 39.45703125 -35.8046875 39.45703125 -35.875 41.8125 C-35.89304687 42.60269531 -35.91109375 43.39289062 -35.9296875 44.20703125 C-35.95289063 44.79871094 -35.97609375 45.39039063 -36 46 C-35.33613281 45.97679687 -34.67226563 45.95359375 -33.98828125 45.9296875 C-29.00326864 45.82780403 -25.63085624 46.1476575 -21 48 C-14.1817505 48.83294497 -8.58643137 48.14066756 -3 44 C2.82589939 38.59926487 5.9551208 33.66603205 6.3125 25.625 C6.13012009 19.90403011 5.13820396 15.26293253 1.125 11.015625 C-5.81685602 4.83941487 -10.80774709 3.29618122 -19.9609375 3.5546875 C-26.23239918 4.01655059 -30.3318926 6.94216904 -34.390625 11.59375 Z " fill="#F5F9F6" transform="translate(48,6)"/>
<path d="M0 0 C1.32 0 2.64 0 4 0 C5.85579119 3.13164763 6.28640356 5.37222163 6 9 C5.67 9.66 5.34 10.32 5 11 C8.13497347 15.42204946 8.13497347 15.42204946 12.6875 18 C13.450625 18 14.21375 18 15 18 C15.66 17.34 16.32 16.68 17 16 C19.61580479 16.3269756 21.64078137 16.82039068 24 18 C24.125 20.375 24.125 20.375 24 23 C22 25 22 25 18.375 25.375 C12.54737967 25.18531254 8.20599584 23.11498226 4.01171875 19.09375 C1.18481484 15.95664752 -1.42032675 12.95700329 -3 9 C-2.55555556 2.55555556 -2.55555556 2.55555556 0 0 Z " fill="#F5FBF5" transform="translate(21,19)"/>
<path d="M0 0 C5.87876803 3.98805705 10.68798042 9.16501316 13 16 C12.62109375 18.26953125 12.62109375 18.26953125 12 20 C11.34 20 10.68 20 10 20 C9.65388672 19.12988281 9.65388672 19.12988281 9.30078125 18.2421875 C6.13178402 10.65162496 2.33115236 4.79175936 -5.140625 0.91796875 C-12.34367142 -1.39448468 -21.89574542 -1.53283764 -28.75 1.875 C-29.8225 2.57625 -30.895 3.2775 -32 4 C-33.02867188 4.43699219 -33.02867188 4.43699219 -34.078125 4.8828125 C-36.48804051 6.28369835 -36.94897124 7.45148778 -38 10 C-39.33333333 12.66666667 -40.66666667 15.33333333 -42 18 C-42.66 18 -43.32 18 -44 18 C-42.99521956 11.50318102 -39.84398658 6.39707441 -34.8125 2.15625 C-23.94808255 -5.33138905 -11.72290197 -6.68185643 0 0 Z " fill="#B8B8B8" transform="translate(48,6)"/>
<path d="M0 0 C2.99202303 0.63844253 5.85508011 0.55398826 8.91015625 0.5234375 C10.080625 0.51441406 11.25109375 0.50539062 12.45703125 0.49609375 C13.3490625 0.48449219 14.24109375 0.47289062 15.16015625 0.4609375 C15.16015625 1.4509375 15.16015625 2.4409375 15.16015625 3.4609375 C9.58717573 5.03344893 4.20238914 5.08090106 -1.33984375 3.3984375 C-5.8139582 2.20001399 -9.32764594 2.731373 -13.83984375 3.4609375 C-15.19382804 3.64974999 -16.5479777 3.83738317 -17.90234375 4.0234375 C-18.87171875 4.1678125 -19.84109375 4.3121875 -20.83984375 4.4609375 C-20.50984375 3.1409375 -20.17984375 1.8209375 -19.83984375 0.4609375 C-12.99295037 -1.49763011 -6.91028784 -2.02467032 0 0 Z " fill="#B3B3B3" transform="translate(25.83984375,57.5390625)"/>
<path d="M0 0 C2 1 2 1 2.80859375 3.12890625 C3.06354356 6.95315345 1.77648456 9.6235894 0.0625 12.9375 C-0.41195557 13.86792114 -0.41195557 13.86792114 -0.89599609 14.81713867 C-3.67432324 19.95602495 -6.741619 23.43681428 -12 26 C-15 26.875 -15 26.875 -17 27 C-17 26.01 -17 25.02 -17 24 C-15.20703125 22.67578125 -15.20703125 22.67578125 -12.8125 21.3125 C-4.70425074 16.13187606 -2.28190512 9.05341217 0 0 Z " fill="#B6B6B6" transform="translate(59,32)"/>
<path d="M0 0 C1.36072118 0.96240098 2.6982841 1.95917653 4 3 C3.29875 3.02578125 2.5975 3.0515625 1.875 3.078125 C-4.70456949 3.47146883 -9.35224199 4.66669071 -15 8 C-15.69222656 8.29003906 -16.38445313 8.58007812 -17.09765625 8.87890625 C-19.48508983 10.2858743 -19.95467655 11.46532189 -21 14 C-22.33333333 16.66666667 -23.66666667 19.33333333 -25 22 C-25.66 22 -26.32 22 -27 22 C-25.99521956 15.50318102 -22.84398658 10.39707441 -17.8125 6.15625 C-12.42603357 2.44395557 -6.75990517 -0.88946121 0 0 Z " fill="#C8C8C8" transform="translate(31,2)"/>
<path d="M0 0 C0.66 0.66 1.32 1.32 2 2 C1.66240736 8.30172924 -0.05252593 14.02284687 -2 20 C-3.42854471 17.7153599 -4.11731855 16.58228748 -3.57421875 13.88671875 C-3.28160156 13.16097656 -2.98898438 12.43523438 -2.6875 11.6875 C-1.20906632 7.73628786 -0.44550363 4.18773411 0 0 Z " fill="#B6B6B6" transform="translate(6,41)"/>
<path d="M0 0 C2 2 2 2 2.1953125 4.6015625 C2.17210937 5.59929688 2.14890625 6.59703125 2.125 7.625 C2.10695313 8.62789062 2.08890625 9.63078125 2.0703125 10.6640625 C2.03550781 11.82035156 2.03550781 11.82035156 2 13 C1.34 11.68 0.68 10.36 0 9 C-0.66 10.32 -1.32 11.64 -2 13 C-2 9.37 -2 5.74 -2 2 C-1.34 2 -0.68 2 0 2 C0 1.34 0 0.68 0 0 Z " fill="#D6D6D6" transform="translate(60,24)"/>
<path d="M0 0 C0.66 0 1.32 0 2 0 C2 4.29 2 8.58 2 13 C1.01 13.495 1.01 13.495 0 14 C-1.24377393 11.51245214 -1.13306235 9.77344699 -1.125 7 C-1.12757812 6.113125 -1.13015625 5.22625 -1.1328125 4.3125 C-1 2 -1 2 0 0 Z " fill="#B7B7B7" transform="translate(3,25)"/>
<path d="M0 0 C3.08117952 3.49200345 4.88889538 6.454572 6 11 C5.67 11.66 5.34 12.32 5 13 C4.34 13 3.68 13 3 13 C2.29819469 11.5903653 1.61406042 10.17192359 0.9375 8.75 C0.55464844 7.96109375 0.17179687 7.1721875 -0.22265625 6.359375 C-1.08564091 3.74006478 -0.93045933 2.55144824 0 0 Z " fill="#A9A9A9" transform="translate(55,13)"/>
<path d="M0 0 C-2 3 -2 3 -4.3828125 3.73046875 C-5.74019531 3.95669922 -5.74019531 3.95669922 -7.125 4.1875 C-8.49011719 4.42533203 -8.49011719 4.42533203 -9.8828125 4.66796875 C-10.58148438 4.77753906 -11.28015625 4.88710938 -12 5 C-11.67 3.68 -11.34 2.36 -11 1 C-9.5437328 0.63743142 -8.08488815 0.28520207 -6.625 -0.0625 C-5.40683594 -0.35833984 -5.40683594 -0.35833984 -4.1640625 -0.66015625 C-2 -1 -2 -1 0 0 Z " fill="#C5C5C5" transform="translate(17,57)"/>
<path d="M0 0 C0 0.99 0 1.98 0 3 C-3.9813783 4.3271261 -7.85045227 4.06915913 -12 4 C-10.68 3.67 -9.36 3.34 -8 3 C-8 2.34 -8 1.68 -8 1 C-5.29120665 -0.35439668 -2.99066732 -0.06501451 0 0 Z " fill="#BABABA" transform="translate(41,58)"/>
<path d="M0 0 C0.556875 0.391875 1.11375 0.78375 1.6875 1.1875 C-3.9375 5.1875 -3.9375 5.1875 -7.3125 5.1875 C-7.3125 4.1975 -7.3125 3.2075 -7.3125 2.1875 C-3.20088417 -1.12463498 -3.20088417 -1.12463498 0 0 Z " fill="#C0C0C0" transform="translate(49.3125,53.8125)"/>
<path d="M0 0 C0.88336837 2.4667645 1.1312406 3.63859372 0.22265625 6.140625 C-0.16019531 6.83671875 -0.54304687 7.5328125 -0.9375 8.25 C-1.31777344 8.95640625 -1.69804688 9.6628125 -2.08984375 10.390625 C-2.39019531 10.92171875 -2.69054687 11.4528125 -3 12 C-3.66 12 -4.32 12 -5 12 C-4.42365861 7.24518354 -2.44931479 4.02951788 0 0 Z " fill="#ABABAB" transform="translate(9,12)"/>
<path d="M0 0 C0.66 0 1.32 0 2 0 C0.92598892 2.91517292 0.22189824 4.77810176 -2 7 C-3.32 7 -4.64 7 -6 7 C-5.1875 5.0625 -5.1875 5.0625 -4 3 C-3.01 2.67 -2.02 2.34 -1 2 C-0.67 1.34 -0.34 0.68 0 0 Z " fill="#8A8A8A" transform="translate(55,47)"/>
<path d="M0 0 C0.66 0.99 1.32 1.98 2 3 C-1.75 6 -1.75 6 -4 6 C-4.33 6.99 -4.66 7.98 -5 9 C-5.33 7.68 -5.66 6.36 -6 5 C-4.02 3.35 -2.04 1.7 0 0 Z " fill="#BFBFBF" transform="translate(16,6)"/>
<path d="M0 0 C1.32 0.66 2.64 1.32 4 2 C4 3.32 4 4.64 4 6 C2.35 4.35 0.7 2.7 -1 1 C-0.67 0.67 -0.34 0.34 0 0 Z " fill="#CBCBCB" transform="translate(50,9)"/>
<path d="M0 0 C2.31 0.33 4.62 0.66 7 1 C7 1.66 7 2.32 7 3 C2.25 4.125 2.25 4.125 0 3 C0 2.01 0 1.02 0 0 Z " fill="#A7A7A7" transform="translate(26,58)"/>
<path d="M0 0 C0.66 0.66 1.32 1.32 2 2 C1.67 2.66 1.34 3.32 1 4 C0.01 4 -0.98 4 -2 4 C-2.33 4.99 -2.66 5.98 -3 7 C-3.66 6.67 -4.32 6.34 -5 6 C-2.25 1.125 -2.25 1.125 0 0 Z " fill="#B0B0B0" transform="translate(57,43)"/>
</svg>
